<svg width="212" height="210" viewBox="0 0 212 210" fill="none" xmlns="http://www.w3.org/2000/svg">
<path d="M204.5 105C204.5 158.781 160.467 202.5 106 202.5C51.5328 202.5 7.5 158.781 7.5 105C7.5 51.2191 51.5328 7.5 106 7.5C160.467 7.5 204.5 51.2191 204.5 105Z" stroke="#1D2321" stroke-width="17"/>
<path d="M148.053 74.5224C148.053 94.7309 140.741 107.015 123.247 115.778C119.082 117.865 117.811 126.401 117.811 129.319C117.811 135.98 112.39 141.408 105.526 141.408C98.8575 141.408 93.4372 135.98 93.4372 129.319C93.4372 126.604 93.8547 103.261 112.39 93.8931C120.743 89.7359 123.867 86.1833 123.867 74.519C123.867 64.5085 115.725 56.3813 105.527 56.3813C95.5163 56.3813 87.3968 64.5085 87.3968 74.519C87.3968 81.18 81.9838 86.8112 75.0968 86.8112C68.4208 86.8112 63 81.18 63 74.519C63 51.1675 82.1943 32 105.527 32C129.069 31.9995 148.053 51.1705 148.053 74.5224ZM117.811 165.796C117.811 172.457 112.39 177.878 105.526 177.878C98.8575 177.878 93.4372 172.457 93.4372 165.796C93.4372 158.917 98.858 153.496 105.526 153.496C112.39 153.5 117.811 158.921 117.811 165.796Z" fill="#1D2321"/>
</svg>
